<?xml version="1.0" encoding="UTF-8"?>
<svg id="Capa_1" xmlns="http://www.w3.org/2000/svg" viewBox="0 0 16 16">
  <defs>
    <style>
      .cls-1 {
        fill: #fff;
      }
    </style>
  </defs>
  <circle cx="8" cy="8" r="8"/>
  <path class="cls-1" d="M10.48,10.46c-.52.53-1.43.58-2.18.58s-1.65-.04-2.18-.58c-.38-.37-.46-1-.46-1.53s.08-1.16.46-1.53c.52-.53,1.43-.58,2.18-.58s1.65.04,2.18.58c.38.37.46,1,.46,1.53s-.08,1.16-.46,1.53M8.3,5.4c-.85,0-1.83.03-2.64.34v-2.4c0-.24-.16-.4-.4-.4l-1.01.33c-.34.12-.35.3-.35.52v8.25c0,.24.16.4.4.4h.97c.21,0,.36-.13.39-.34.81.31,1.79.34,2.64.34,1.25,0,2.75-.06,3.63-.97.64-.62.77-1.66.77-2.56s-.13-1.93-.77-2.56c-.86-.88-2.37-.96-3.63-.96"/>
</svg>